<mxfile host="app.diagrams.net" modified="2024-02-04T08:21:53.052Z" agent="Mozilla/5.0 (Macintosh; Intel Mac OS X 10_15_7) AppleWebKit/537.36 (KHTML, like Gecko) Chrome/121.0.0.0 Safari/537.36" etag="HcJk0OhirfGKoPdVvDnb" version="23.1.1" type="github">
  <diagram name="第 1 页" id="VUuvQ1qgvpJufilUVMEf">
    <mxGraphModel dx="1813" dy="852" grid="1" gridSize="10" guides="1" tooltips="1" connect="1" arrows="1" fold="1" page="1" pageScale="1" pageWidth="1169" pageHeight="827" math="0" shadow="0">
      <root>
        <mxCell id="0" />
        <mxCell id="1" parent="0" />
        <mxCell id="edZjBlPf1BxKwGKq6yba-1" value="" style="shape=actor;whiteSpace=wrap;html=1;shadow=0;sketch=1;curveFitting=1;jiggle=2;fillColor=#ffe6cc;strokeColor=#d79b00;" vertex="1" parent="1">
          <mxGeometry x="190" y="100" width="40" height="60" as="geometry" />
        </mxCell>
        <mxCell id="edZjBlPf1BxKwGKq6yba-2" value="接口" style="shape=tapeData;whiteSpace=wrap;html=1;perimeter=ellipsePerimeter;fillColor=#fa6800;fontColor=#000000;strokeColor=#C73500;sketch=1;curveFitting=1;jiggle=2;" vertex="1" parent="1">
          <mxGeometry x="430" y="105" width="50" height="50" as="geometry" />
        </mxCell>
        <mxCell id="edZjBlPf1BxKwGKq6yba-4" value="授权" style="shape=tapeData;whiteSpace=wrap;html=1;perimeter=ellipsePerimeter;fillColor=#0050ef;fontColor=#ffffff;strokeColor=#001DBC;" vertex="1" parent="1">
          <mxGeometry x="640" y="110" width="50" height="50" as="geometry" />
        </mxCell>
        <mxCell id="edZjBlPf1BxKwGKq6yba-5" value="" style="rounded=1;whiteSpace=wrap;html=1;fillColor=#008a00;fontColor=#ffffff;strokeColor=#005700;" vertex="1" parent="1">
          <mxGeometry x="205" y="180" width="10" height="380" as="geometry" />
        </mxCell>
        <mxCell id="edZjBlPf1BxKwGKq6yba-6" value="" style="rounded=1;whiteSpace=wrap;html=1;fillColor=#f0a30a;fontColor=#000000;strokeColor=#BD7000;" vertex="1" parent="1">
          <mxGeometry x="450" y="180" width="10" height="150" as="geometry" />
        </mxCell>
        <mxCell id="edZjBlPf1BxKwGKq6yba-8" value="" style="endArrow=classic;html=1;rounded=0;entryX=-0.5;entryY=0.06;entryDx=0;entryDy=0;entryPerimeter=0;" edge="1" parent="1" target="edZjBlPf1BxKwGKq6yba-6">
          <mxGeometry relative="1" as="geometry">
            <mxPoint x="220" y="190" as="sourcePoint" />
            <mxPoint x="320" y="190" as="targetPoint" />
          </mxGeometry>
        </mxCell>
        <mxCell id="edZjBlPf1BxKwGKq6yba-9" value="登录" style="edgeLabel;resizable=0;html=1;align=center;verticalAlign=middle;" connectable="0" vertex="1" parent="edZjBlPf1BxKwGKq6yba-8">
          <mxGeometry relative="1" as="geometry" />
        </mxCell>
        <mxCell id="edZjBlPf1BxKwGKq6yba-10" value="" style="rounded=1;whiteSpace=wrap;html=1;fillColor=#0050ef;fontColor=#ffffff;strokeColor=#001DBC;" vertex="1" parent="1">
          <mxGeometry x="660" y="180" width="10" height="150" as="geometry" />
        </mxCell>
        <mxCell id="edZjBlPf1BxKwGKq6yba-11" value="" style="endArrow=classic;html=1;rounded=0;exitX=-0.6;exitY=0.867;exitDx=0;exitDy=0;exitPerimeter=0;" edge="1" parent="1" source="edZjBlPf1BxKwGKq6yba-13">
          <mxGeometry relative="1" as="geometry">
            <mxPoint x="360" y="540" as="sourcePoint" />
            <mxPoint x="220" y="540" as="targetPoint" />
          </mxGeometry>
        </mxCell>
        <mxCell id="edZjBlPf1BxKwGKq6yba-12" value="返回登录信息&lt;br&gt;response :&lt;br&gt;set-cookie:" style="edgeLabel;resizable=0;html=1;align=center;verticalAlign=middle;" connectable="0" vertex="1" parent="edZjBlPf1BxKwGKq6yba-11">
          <mxGeometry relative="1" as="geometry" />
        </mxCell>
        <mxCell id="edZjBlPf1BxKwGKq6yba-13" value="" style="rounded=1;whiteSpace=wrap;html=1;fillColor=#f0a30a;fontColor=#000000;strokeColor=#BD7000;" vertex="1" parent="1">
          <mxGeometry x="450" y="410" width="10" height="150" as="geometry" />
        </mxCell>
      </root>
    </mxGraphModel>
  </diagram>
</mxfile>
